<?xml version="1.0" standalone="no"?>
<!DOCTYPE svg PUBLIC "-//W3C//DTD SVG 20010904//EN"
 "http://www.w3.org/TR/2001/REC-SVG-20010904/DTD/svg10.dtd">
<svg version="1.0" xmlns="http://www.w3.org/2000/svg"
 width="200.000000pt" height="240.000000pt" viewBox="0 0 200.000000 240.000000"
 preserveAspectRatio="xMidYMid meet">

<g transform="translate(0.000000,240.000000) scale(0.100000,-0.100000)"
fill="#000000" stroke="none">
<path d="M147 1858 c-15 -128 -27 -239 -27 -245 0 -8 13 -13 33 -13 17 0 41
-7 51 -15 25 -19 44 -19 80 0 35 19 65 19 90 0 26 -19 46 -19 76 2 26 18 96
19 117 1 23 -18 57 -4 76 32 17 31 18 32 13 8 -6 -27 -5 -28 38 -28 25 0 48
-4 51 -10 3 -5 17 -10 30 -10 13 0 27 5 30 10 9 14 101 13 124 -2 15 -9 25 -9
46 0 33 15 80 15 104 0 15 -9 28 -9 60 2 34 11 45 11 66 0 19 -10 30 -11 50
-2 32 15 82 16 90 2 3 -5 19 -10 35 -10 16 0 32 5 35 10 8 14 51 13 93 -2 31
-12 36 -11 51 8 9 12 27 68 40 125 13 57 27 111 32 119 16 28 9 -82 -10 -162
l-18 -78 43 0 c23 0 46 -4 49 -10 10 -16 40 -12 58 8 8 9 23 45 32 80 9 35 43
122 76 194 63 136 69 171 31 176 -17 3 -21 8 -17 23 6 17 1 19 -39 19 -35 0
-48 -5 -56 -20 -6 -11 -20 -20 -30 -20 -13 0 -20 7 -20 20 0 17 -7 20 -44 20
-30 0 -46 -5 -50 -15 -3 -8 -10 -15 -16 -15 -5 0 -10 7 -10 15 0 12 -15 15
-74 15 -72 0 -74 -1 -86 -29 -12 -29 -12 -29 -41 -13 -16 10 -29 23 -29 30 0
8 -22 12 -75 12 -73 0 -75 -1 -81 -27 -10 -43 -15 -46 -31 -24 -8 12 -21 21
-29 21 -8 0 -14 7 -14 15 0 12 -16 15 -80 15 -75 0 -81 -2 -91 -24 -10 -21
-15 -23 -35 -14 -13 6 -24 17 -24 25 0 10 -24 13 -104 13 -96 0 -105 -2 -119
-22 l-16 -23 0 23 c-1 19 -6 22 -45 22 -36 0 -46 -4 -51 -20 -3 -11 -11 -20
-16 -20 -5 0 -9 9 -9 20 0 17 -7 20 -45 20 -34 0 -47 -5 -55 -20 -6 -11 -20
-20 -30 -20 -13 0 -20 7 -20 20 0 17 -7 20 -44 20 -35 0 -45 -4 -49 -20 -3
-12 -14 -20 -26 -20 -14 0 -21 6 -21 20 0 17 -7 20 -48 20 l-48 0 -27 -232z
m747 -49 c-26 -76 -49 -138 -51 -136 -8 8 55 248 72 274 35 52 27 3 -21 -138z
m-177 79 c-3 -8 -6 -5 -6 6 -1 11 2 17 5 13 3 -3 4 -12 1 -19z m-10 -40 c-3
-8 -6 -5 -6 6 -1 11 2 17 5 13 3 -3 4 -12 1 -19z m-10 -50 c-3 -8 -6 -5 -6 6
-1 11 2 17 5 13 3 -3 4 -12 1 -19z m-10 -40 c-3 -8 -6 -5 -6 6 -1 11 2 17 5
13 3 -3 4 -12 1 -19z m-10 -40 c-3 -8 -6 -5 -6 6 -1 11 2 17 5 13 3 -3 4 -12
1 -19z m-10 -50 c-3 -8 -6 -5 -6 6 -1 11 2 17 5 13 3 -3 4 -12 1 -19z"/>
<path d="M527 1142 l-47 -48 24 -23 c32 -30 65 -107 67 -157 1 -21 -4 -98 -11
-169 -26 -259 24 -430 157 -531 23 -18 85 -49 137 -69 52 -20 100 -43 107 -51
9 -12 15 -11 34 4 13 10 61 33 107 51 147 56 224 135 266 271 17 56 22 226 11
450 -4 103 5 135 59 193 l26 28 -50 50 -51 50 -48 -25 c-63 -34 -125 -34 -184
-1 -39 23 -54 25 -155 25 -99 0 -117 -3 -160 -25 -29 -15 -66 -25 -91 -25 -25
0 -62 10 -91 25 -27 14 -51 25 -54 25 -3 0 -27 -22 -53 -48z m458 -52 c4 -6
-4 -9 -17 -7 -17 1 -23 -3 -23 -18 0 -15 6 -19 23 -18 12 2 22 -1 22 -6 0 -16
-40 -23 -55 -11 -15 13 -20 51 -8 63 10 11 51 8 58 -3z m85 2 c0 -5 -9 -17
-20 -27 -11 -10 -17 -22 -14 -26 10 -17 39 -9 59 18 13 15 27 23 33 19 15 -9
16 -86 2 -86 -5 0 -10 7 -10 16 0 10 -8 15 -22 14 -90 -8 -123 9 -77 38 20 13
20 14 2 27 -17 13 -16 14 15 15 17 0 32 -4 32 -8z m-245 -32 c3 -5 -2 -10 -12
-11 -12 -1 -10 -3 7 -8 36 -10 34 -45 -2 -49 -17 -2 -28 2 -28 8 0 7 7 10 15
7 8 -4 17 -2 20 3 4 6 -5 10 -19 10 -19 0 -26 5 -26 19 0 26 33 41 45 21z
m388 -24 c21 -16 23 -46 2 -46 -8 0 -12 -6 -9 -14 3 -8 1 -17 -5 -21 -6 -3
-11 2 -11 13 0 26 -11 34 -27 21 -19 -16 -17 5 3 36 19 28 22 29 47 11z m-463
-25 c0 -11 9 -21 21 -24 12 -3 18 -10 15 -15 -3 -6 -15 -8 -26 -5 -16 4 -19 2
-14 -11 11 -28 -14 -18 -37 16 l-23 31 22 -5 c17 -5 22 -2 22 13 0 10 5 19 10
19 6 0 10 -8 10 -19z m524 -49 c-5 -22 -4 -25 7 -14 28 26 31 11 4 -18 -35
-36 -49 -38 -41 -6 5 21 3 23 -17 19 -21 -5 -20 -4 7 25 33 36 49 33 40 -6z
m-564 -22 c8 -14 8 -26 0 -40 -14 -27 -32 -25 -60 5 -19 20 -21 27 -10 40 18
21 57 19 70 -5z m620 -18 c0 -12 -57 -52 -64 -45 -4 4 6 17 21 30 29 24 43 28
43 15z m-421 -64 c-1 -24 -3 -27 -6 -10 -2 12 -10 22 -16 22 -7 0 -6 4 3 10
21 13 20 14 19 -22z m59 20 c9 -9 12 -9 12 0 0 7 8 12 18 12 14 0 15 -2 2 -10
-10 -6 -11 -10 -2 -10 6 0 12 -9 12 -20 0 -22 -24 -27 -36 -8 -5 8 -2 9 9 5
10 -3 17 -2 17 3 0 16 -30 11 -36 -5 -11 -27 -34 -17 -34 15 0 31 17 39 38 18z
m87 2 c4 -6 2 -17 -5 -24 -8 -11 -8 -15 2 -19 7 -3 3 -6 -9 -6 -24 -1 -31 13
-13 24 6 3 10 11 10 16 0 6 -4 7 -10 4 -5 -3 -10 -1 -10 4 0 14 27 14 35 1z
m64 -46 c1 11 41 -24 41 -36 0 -5 -4 -6 -10 -3 -5 3 -10 1 -10 -6 0 -7 -3 -9
-7 -6 -7 7 -33 -11 -33 -23 0 -9 109 -76 120 -73 4 1 5 -17 3 -40 -4 -31 -1
-46 11 -56 9 -7 16 -19 16 -25 0 -6 -9 0 -20 14 l-19 25 14 -47 c17 -58 11
-63 -11 -9 -8 22 -22 42 -30 45 -8 3 -19 17 -24 31 -5 14 -17 25 -28 25 -10 0
-27 9 -37 20 -22 24 -14 25 25 5 18 -9 30 -11 30 -5 0 19 -50 31 -86 21 -25
-7 -34 -6 -34 2 0 7 -3 22 -6 35 -5 18 -3 23 8 20 18 -4 72 58 63 72 -4 6 -4
19 0 28 6 15 8 15 15 -3 5 -11 9 -16 9 -11z m-273 -8 c-3 -14 -1 -28 5 -31 6
-4 19 -21 30 -39 10 -17 19 -25 19 -18 0 6 5 12 10 12 6 0 10 -12 10 -26 0
-17 -4 -23 -12 -18 -7 5 -9 2 -5 -8 5 -14 1 -15 -24 -8 -31 9 -89 -5 -89 -21
0 -12 6 -11 43 7 l32 17 -24 -26 c-13 -14 -29 -23 -37 -20 -8 3 -17 -5 -23
-20 -5 -14 -15 -28 -22 -32 -6 -4 -20 -28 -31 -52 -21 -47 -36 -54 -18 -9 13
34 13 56 0 36 -5 -8 -12 -11 -16 -7 -4 4 1 16 11 26 12 14 16 31 13 55 -2 19
-2 33 0 31 6 -6 122 75 122 86 0 12 -39 31 -50 24 -20 -12 -9 11 18 37 34 34
46 35 38 4z m150 -124 c6 -4 14 -17 18 -29 4 -13 18 -24 36 -28 17 -4 30 -10
30 -15 0 -5 2 -15 5 -22 4 -9 -5 -20 -20 -28 -21 -11 -26 -20 -21 -41 4 -20 0
-29 -17 -36 -16 -8 -26 -7 -35 3 -15 16 -54 18 -68 4 -7 -7 -18 -2 -34 15 -13
14 -19 25 -13 25 6 0 14 7 17 16 7 19 -11 57 -25 49 -12 -8 -11 -1 2 28 8 17
19 24 41 25 32 1 61 19 52 33 -6 11 16 12 32 1z m-310 -259 c-3 -4 4 -13 16
-20 17 -9 19 -12 7 -13 -9 0 -24 -10 -33 -22 l-17 -23 5 23 c4 19 1 22 -15 17
-26 -9 -24 9 4 28 22 16 46 23 33 10z m604 -15 c32 -11 33 -12 11 -20 -14 -5
-21 -14 -18 -22 7 -19 -18 -40 -38 -32 -10 4 -15 1 -13 -9 2 -7 -1 -15 -7 -16
-5 -1 -16 -10 -23 -20 -7 -11 -21 -19 -31 -19 -10 0 -24 -7 -31 -15 -18 -21
-47 -19 -60 6 -14 26 3 49 36 49 17 0 24 6 24 19 0 14 6 17 25 13 17 -3 25 0
23 8 -2 6 7 19 20 27 22 15 23 15 29 -5 3 -12 12 -22 20 -22 13 0 13 3 -1 25
-30 45 -22 53 34 33z m-539 -44 c10 -12 10 -20 1 -35 -13 -21 -12 -22 12 -13
8 3 12 12 9 21 -5 14 -1 13 25 -2 17 -10 29 -22 26 -27 -3 -4 0 -8 7 -8 7 0 4
-7 -7 -15 -16 -12 -17 -16 -4 -24 19 -13 8 -23 -15 -15 -12 5 -15 14 -11 34 4
24 2 27 -15 23 -15 -4 -17 -8 -8 -19 22 -27 0 -26 -26 0 -14 14 -30 26 -34 26
-20 0 -32 29 -21 49 13 25 42 27 61 5z m167 -74 c6 0 12 -10 12 -22 1 -23 1
-23 15 2 14 25 15 25 21 3 6 -21 6 -21 25 -2 26 26 36 24 54 -11 20 -39 19
-41 -10 -34 -14 3 -25 2 -25 -3 0 -17 -43 -7 -50 12 -6 17 -7 17 -13 2 -8 -22
-27 -22 -27 0 0 15 -2 15 -19 -1 -15 -14 -24 -15 -40 -6 -38 20 -17 77 24 66
11 -3 26 -6 33 -6z"/>
<path d="M1190 1021 c0 -5 5 -13 10 -16 6 -3 10 -2 10 4 0 5 -4 13 -10 16 -5
3 -10 2 -10 -4z"/>
<path d="M660 931 c0 -5 6 -14 14 -20 16 -13 32 2 21 19 -8 12 -35 13 -35 1z"/>
<path d="M1189 649 c-9 -17 -8 -25 5 -37 10 -11 16 -12 16 -4 0 7 -4 12 -10
12 -6 0 -6 9 0 25 12 30 5 33 -11 4z"/>
<path d="M745 646 c3 -11 -2 -27 -11 -37 -10 -11 -12 -19 -7 -19 6 0 16 7 23
15 10 12 10 20 1 38 -8 15 -10 16 -6 3z"/>
<path d="M942 616 c-9 -20 -7 -27 8 -41 24 -22 60 -5 60 29 0 41 -51 49 -68
12z"/>
<path d="M1155 341 c-8 -15 3 -31 21 -31 9 0 14 7 12 17 -4 20 -24 28 -33 14z"/>
<path d="M1094 305 c-9 -23 12 -43 28 -27 9 9 9 12 -1 12 -7 0 -10 4 -6 9 3 5
1 12 -5 16 -6 3 -13 -1 -16 -10z"/>
<path d="M705 370 c-3 -5 -4 -14 0 -20 8 -13 35 -1 35 16 0 16 -26 19 -35 4z"/>
<path d="M860 280 c0 -23 25 -27 33 -6 7 16 -1 26 -20 26 -7 0 -13 -9 -13 -20z"/>
</g>
</svg>
